<svg xmlns="http://www.w3.org/2000/svg" width="1302.289" height="819.002" viewBox="0 0 1302.289 819.002"><g transform="translate(-268.333 238.753)"><path d="M772.053-26.229c355.652,0,536,190.832,536,380.5s194.271,412.417-161.381,412.417S58.72,182.105,58.72-7.562c0-2.276,49.2,67.722,49.333,65.333C118.5-123.553,420.67-26.229,772.053-26.229Z" transform="translate(209.614 -186.438)" fill="#ed4b51"/><line x2="31" y2="31" transform="translate(702.5 459.5)" fill="none" stroke="#707070" stroke-width="1"/><line x2="31" y2="31" transform="translate(763.5 459.5) rotate(90)" fill="none" stroke="#707070" stroke-width="1"/><g transform="translate(0 -20)"><line x2="31" y2="31" transform="translate(702.5 459.5)" fill="none" stroke="#707070" stroke-width="1"/><line x2="31" y2="31" transform="translate(763.5 459.5) rotate(90)" fill="none" stroke="#707070" stroke-width="1"/></g><path d="M772.053-26.229c355.652,0,536,190.832,536,380.5s194.271,412.417-161.381,412.417S58.72,182.105,58.72-7.562c0-2.276,49.2,67.722,49.333,65.333C118.5-123.553,420.67-26.229,772.053-26.229Z" transform="translate(209.614 -186.438)" fill="#ed4b51"/><line x2="31" y2="31" transform="translate(702.5 459.5)" fill="none" stroke="#424b54" stroke-width="1"/><line x2="31" y2="31" transform="translate(763.5 459.5) rotate(90)" fill="none" stroke="#424b54" stroke-width="1"/><g transform="translate(0 -20)"><line x2="31" y2="31" transform="translate(702.5 459.5)" fill="none" stroke="#424b54" stroke-width="1"/><line x2="31" y2="31" transform="translate(763.5 459.5) rotate(90)" fill="none" stroke="#424b54" stroke-width="1"/></g></g></svg>